<?xml version="1.0" encoding="utf-8"?>
<!-- Generator: Adobe Illustrator 21.0.0, SVG Export Plug-In . SVG Version: 6.00 Build 0)  -->
<svg version="1.1" xmlns="http://www.w3.org/2000/svg" xmlns:xlink="http://www.w3.org/1999/xlink" x="0px" y="0px"
	 viewBox="0 0 238 43" style="enable-background:new 0 0 238 43;" xml:space="preserve">
<style type="text/css">
	.st0{display:none;}
	.st1{display:inline;}
	.st2{fill:#FFFFFF;}
	.st3{display:none;fill:#FFFFFF;}
	.st4{fill:#468CDF;}
	.st5{fill:#43ACA7;}
</style>
<g id="Слой_1" class="st0">
	<g class="st1">
		<g>
			<path class="st2" d="M0,11.6C0,10.7,0.5,10,1.2,10s1.3,0.7,1.3,1.6v17.2c0,1.1,0.8,2.1,1.7,2.1h11.4c0.7,0,1.3,0.7,1.3,1.5
				c0,0.9-0.6,1.6-1.3,1.6H4.2C1.9,34,0,31.7,0,28.8V11.6z"/>
			<path class="st2" d="M73.7,10c0.9,0,1.6,0.7,1.6,1.6c0,0.8-0.7,1.6-1.6,1.6H60c-1.1,0-2.1,0.9-2.1,2v13.6c0,1.1,0.9,2.1,2.1,2.1
				h13.6c0.9,0,1.6,0.7,1.6,1.5c0,0.9-0.7,1.6-1.6,1.6H60c-2.8,0-5.1-2.3-5.1-5.1V15.2c0-2.8,2.3-5.1,5.1-5.1h13.7V10z"/>
			<path class="st2" d="M93.3,10c2.8,0,5.1,2.3,5.1,5.1v17.2c0,0.9-0.7,1.6-1.6,1.6c-0.8,0-1.6-0.7-1.6-1.6v-9.1H80.1v9.1
				c0,0.9-0.7,1.6-1.6,1.6c-0.8,0-1.5-0.7-1.5-1.6V15.2c0-2.8,2.3-5.1,5.1-5.1h11.2V10z M80.1,20.2h15.3v-5.1c0-1.1-0.9-2-2-2H82.2
				c-1.1,0-2.1,0.9-2.1,2V20.2z"/>
			<path class="st2" d="M102.1,11.6c0-0.9,0.5-1.6,1.2-1.6s1.2,0.7,1.2,1.6v17.2c0,1.1,0.7,2.1,1.6,2.1h11.1c0.7,0,1.2,0.7,1.2,1.5
				c0,0.9-0.6,1.6-1.2,1.6h-11.1c-2.2,0-4.1-2.3-4.1-5.1V11.6H102.1z"/>
			<path class="st2" d="M136.4,15.4c2.2,0,4,1.8,4,4V30c0,2.2-1.8,4-4,4H126c-2.2,0-4-1.8-4-4V19.4c0-2.2,1.8-4,4-4H136.4z
				 M124.4,30c0,0.9,0.7,1.6,1.6,1.6h10.4c0.9,0,1.6-0.7,1.6-1.6V19.4c0-0.9-0.7-1.6-1.6-1.6H126c-0.9,0-1.6,0.7-1.6,1.6V30z"/>
			<path class="st2" d="M158,15.4c0.7,0,1.2,0.5,1.2,1.2c0,0.6-0.5,1.2-1.2,1.2h-6.4v14.9c0,0.7-0.5,1.2-1.2,1.2s-1.2-0.5-1.2-1.2
				V17.8h-6.4c-0.7,0-1.2-0.6-1.2-1.2c0-0.7,0.5-1.2,1.2-1.2C142.8,15.4,158,15.4,158,15.4z"/>
			<path class="st2" d="M176.3,15.4c0.7,0,1.2,0.5,1.2,1.2c0,0.6-0.5,1.2-1.2,1.2H170v14.9c0,0.7-0.5,1.2-1.2,1.2s-1.2-0.5-1.2-1.2
				V17.8h-6.4c-0.7,0-1.2-0.6-1.2-1.2c0-0.7,0.5-1.2,1.2-1.2C161.2,15.4,176.3,15.4,176.3,15.4z"/>
			<path class="st2" d="M193,15.4c2.2,0,4,1.8,4,4V30c0,2.2-1.8,4-4,4h-10.4c-2.2,0-4-1.8-4-4V19.4c0-2.2,1.8-4,4-4H193z M181,30
				c0,0.9,0.7,1.6,1.6,1.6H193c0.9,0,1.6-0.7,1.6-1.6V19.4c0-0.9-0.7-1.6-1.6-1.6h-10.4c-0.9,0-1.6,0.7-1.6,1.6V30z"/>
			<path class="st2" d="M198.6,32.4c0-0.5,0.4-1,1-1c0.5,0,1,0.4,1,1V33c0,0.5-0.5,1-1,1c-0.6,0-1-0.5-1-1V32.4z"/>
			<path class="st2" d="M210.4,24.7c0.3,0,0.6,0.3,0.6,0.6c0,0.3-0.3,0.6-0.6,0.6h-5.3c-0.4,0-0.8,0.4-0.8,0.8V32
				c0,0.4,0.4,0.8,0.8,0.8h5.3c0.3,0,0.6,0.3,0.6,0.6s-0.3,0.6-0.6,0.6h-5.3c-1.1,0-2-0.9-2-2v-5.3c0-1.1,0.9-2,2-2
				C205.1,24.7,210.4,24.7,210.4,24.7z"/>
			<path class="st2" d="M218.9,24.7c1.1,0,2,0.9,2,2V32c0,1.1-0.9,2-2,2h-5.2c-1.1,0-2-0.9-2-2v-5.3c0-1.1,0.9-2,2-2H218.9z
				 M212.9,32c0,0.4,0.4,0.8,0.8,0.8h5.2c0.4,0,0.8-0.4,0.8-0.8v-5.3c0-0.4-0.4-0.8-0.8-0.8h-5.2c-0.4,0-0.8,0.4-0.8,0.8V32z"/>
			<path class="st2" d="M232.9,34h-1.7v-5.5c0-0.6,0-1.3,0.1-2h-0.1c-0.1,0.6-0.2,1-0.3,1.2l-2.2,6.3H227l-2.2-6.2
				c-0.1-0.2-0.2-0.6-0.3-1.3h-0.1c0.1,0.9,0.1,1.7,0.1,2.4V34H223v-9.3h2.7l1.9,5.5c0.2,0.4,0.3,0.9,0.3,1.3l0,0
				c0.1-0.5,0.2-1,0.4-1.3l1.9-5.5h2.6V34H232.9z"/>
		</g>
		<g>
			<path class="st2" d="M33.9,11L33.9,11c-1,0.3-1.8,0.8-2.6,1.4c0.2,0,0.5,0,0.7,0c0.3,0,0.5,0.1,0.6,0.4c0.1,0.2,0.2,0.4,0.4,0.6
				c0.2,0.2,0.4,0.3,0.6,0.5c0.1,0,0.2,0.1,0.3,0.1c0,0,0.1,0.1,0.3,0.2l0,0c0,0,0,0,0.1,0l0.2,0.1c0.2-0.1,0.3,0,0.5,0.1
				c0.1,0,0.2,0.1,0.3,0.2c0.1,0.1,0.2,0.1,0.3,0.2c0.1,0.1,0.2,0.2,0.3,0.3c-0.1,0.2-0.2,0.3-0.3,0.5l-0.2,0.2l-0.1,0.1
				c0,0-0.1,0.1-0.2,0.1l0,0l0,0c0.1,0.1,0,0.2-0.1,0.2c-0.1,0.1-0.3,0.1-0.4,0.1h-0.2c0,0-0.1,0-0.2,0.1c0,0,0,0-0.1,0
				s-0.1,0.1-0.2,0.1c-0.1,0.1-0.2,0.3-0.2,0.5c0,0.1,0,0.1-0.1,0.2c0,0.4,0.1,0.8,0,1.1c0,0.3-0.1,0.5-0.3,0.5c-0.1,0-0.2,0-0.3,0
				s-0.2-0.1-0.4-0.2s-0.3-0.2-0.6-0.4c0,0.1,0,0.2,0.1,0.2c0.1,0,0.1,0.1,0.1,0.2s0.1,0.1,0.1,0.2h0.1h0.1c0.1,0,0.1,0,0.2,0.1
				c0,0.1,0,0.1,0,0.2l-0.1,0.1l0,0l0.1,0.1c0.1,0.1,0.2,0.1,0.2,0.2H33c0,0,0,0,0.1,0c0.2,0,0.4,0,0.6,0c0.2,0,0.5,0,0.7,0
				s0.5,0.1,0.7,0.2s0.5,0.3,0.7,0.5s0.5,0.4,0.7,0.6s0.5,0.3,0.6,0.4c0.2,0.1,0.3,0.2,0.5,0.4c0.1,0.1,0.2,0.3,0.2,0.4
				c0,0.3,0,0.6-0.1,0.9c0,0.3-0.1,0.5-0.1,0.7c0,0.1-0.2,0.3-0.4,0.6c-0.2,0.2-0.5,0.5-0.8,0.7c-0.1,0.1-0.2,0.2-0.3,0.3
				c-0.1,0.1-0.2,0.2-0.2,0.4c-0.1,0.2-0.1,0.4-0.1,0.6c-0.1,0.2-0.2,0.4-0.3,0.6s-0.2,0.3-0.2,0.5c0,0.1-0.1,0.2-0.1,0.3
				c0.5,0.1,1,0.1,1.6,0.1c4.7,0,8.5-3.8,8.6-8.5l-0.7,0.4c-0.1,0-0.2,0-0.3,0c-0.2,0-0.3,0.1-0.3,0.2l0.4,0.1
				c0.1,0,0.1,0.1,0.1,0.1c0,0.1,0,0.3-0.1,0.5L44.2,21c0,0.1-0.1,0.1-0.1,0.2l-0.2,0.2l-0.2,0.2c0,0,0,0.1,0,0.2s0,0.1,0,0.2
				s0,0.3-0.1,0.4c-0.1,0.2-0.1,0.3-0.2,0.5V23c0,0.1-0.1,0.2-0.1,0.3c0,0.1-0.1,0.2-0.1,0.3c0,0.1-0.1,0.2-0.1,0.2
				c0,0.1-0.1,0.2-0.1,0.3c0,0.4-0.2,0.8-0.5,1.1c-0.4,0.4-0.8,0.6-1.1,0.6c-0.1,0-0.2-0.1-0.3-0.3c-0.1-0.1-0.1-0.3-0.2-0.4
				c0,0,0,0,0-0.1l-0.1-0.2c0,0,0-0.1-0.1-0.2c-0.1-0.2-0.2-0.4-0.2-0.6c-0.1-0.2-0.1-0.4-0.1-0.6v-0.1v-0.1c0-0.2,0.1-0.3,0.1-0.5
				s0-0.3-0.1-0.5L40.3,22c-0.1-0.1-0.1-0.2-0.1-0.4c0-0.1,0-0.3,0.1-0.5c0,0-0.1,0-0.2-0.1c-0.1,0-0.4,0-0.7,0h-0.2h-0.1
				c-0.7,0-1.1-0.4-1.3-1.2c-0.1-0.5,0-1,0.3-1.5v-0.1c0-0.1,0-0.2,0-0.2c0.1,0,0.1,0,0.2-0.1l0.1-0.1l0.1-0.2c0.2,0,0.4,0,0.6-0.1
				c0.2,0,0.5-0.1,0.7-0.1c0.3,0,0.5,0,0.7,0s0.4,0,0.5,0.1s0.2,0.2,0.3,0.2c0.2,0.1,0.4,0.2,0.6,0.3l0.7-0.5
				c-0.1-0.3-0.3-0.4-0.4-0.6c-0.1-0.1-0.2-0.2-0.3-0.3c-0.1-0.1-0.2-0.1-0.3-0.1s-0.2,0-0.3,0.1c-0.2,0-0.3,0.2-0.5,0.3l-1.6-0.1
				c-0.1,0.1-0.2,0.1-0.3,0.2c-0.1,0-0.2,0-0.3,0.1c-0.1,0-0.2,0-0.3,0c0-0.2-0.1-0.3-0.1-0.4c-0.1-0.2-0.1-0.3-0.2-0.4
				c0-0.1,0-0.2,0.1-0.2c0-0.1,0.1-0.1,0.2-0.2c0.1,0,0.1-0.1,0.2-0.2c0-0.1,0.1-0.2,0.1-0.3s0-0.2,0-0.4c0-0.1,0.1-0.3,0.1-0.5
				s0.2-0.4,0.4-0.7c0.1-0.2,0.3-0.3,0.5-0.5c0.2-0.1,0.5-0.2,0.8-0.3s0.6-0.1,0.9-0.2c0.3,0,0.5-0.1,0.7-0.1
				c-0.6-0.5-1.2-0.9-1.9-1.2l0,0C37.2,9.9,34.7,10.8,33.9,11z"/>
			<path class="st2" d="M33.4,27.2c0-0.2,0-0.5,0.1-0.8c0-0.3,0.1-0.7,0.1-1s0.1-0.6,0.1-0.9s0-0.4,0.1-0.5c0-0.2-0.1-0.4-0.2-0.6
				l-0.1-0.2c-0.1-0.2-0.3-0.4-0.4-0.7c-0.1-0.3-0.2-0.6-0.2-0.9s0-0.5,0-0.7c0-0.1,0-0.3,0-0.3l-0.1-0.1h-0.1
				c-0.1-0.1-0.2-0.2-0.3-0.2c-0.1-0.1-0.2-0.2-0.3-0.2c-0.3-0.1-0.6-0.2-0.9-0.3c-0.3-0.1-0.6-0.2-0.9-0.3c-0.1,0-0.3-0.1-0.5-0.2
				s-0.4-0.2-0.6-0.4c-0.2-0.1-0.4-0.3-0.6-0.5s-0.3-0.4-0.5-0.6c-0.1,0.5-0.1,1-0.1,1.5C28,22.8,30.2,25.9,33.4,27.2z"/>
		</g>
		<circle class="st2" cx="22.3" cy="24.1" r="5.4"/>
		<circle class="st2" cx="31.8" cy="33.2" r="5"/>
		<circle class="st2" cx="43.3" cy="32.8" r="4.6"/>
		<circle class="st2" cx="49" cy="24.4" r="4"/>
		<circle class="st2" cx="49.2" cy="15.6" r="3.1"/>
		<circle class="st2" cx="45" cy="10.4" r="2.1"/>
		<circle class="st2" cx="40.3" cy="6.9" r="1.9"/>
		<circle class="st2" cx="34.8" cy="6.9" r="1.9"/>
		<circle class="st2" cx="29.4" cy="8.7" r="1.5"/>
		<circle class="st2" cx="25.7" cy="12" r="1.1"/>
		<circle class="st3" cx="24.9" cy="15.6" r="0.9"/>
	</g>
</g>
<g id="Слой_1__x28_копия_x29_">
	<g>
		<g>
			<path class="st4" d="M0,11.6C0,10.7,0.5,10,1.2,10s1.3,0.7,1.3,1.6v17.2c0,1.1,0.8,2.1,1.7,2.1h11.4c0.7,0,1.3,0.7,1.3,1.5
				c0,0.9-0.6,1.6-1.3,1.6H4.2C1.9,34,0,31.7,0,28.8V11.6z"/>
			<path class="st4" d="M73.7,10c0.9,0,1.6,0.7,1.6,1.6c0,0.8-0.7,1.6-1.6,1.6H60c-1.1,0-2.1,0.9-2.1,2v13.6c0,1.1,0.9,2.1,2.1,2.1
				h13.6c0.9,0,1.6,0.7,1.6,1.5c0,0.9-0.7,1.6-1.6,1.6H60c-2.8,0-5.1-2.3-5.1-5.1V15.2c0-2.8,2.3-5.1,5.1-5.1h13.7V10z"/>
			<path class="st4" d="M93.3,10c2.8,0,5.1,2.3,5.1,5.1v17.2c0,0.9-0.7,1.6-1.6,1.6c-0.8,0-1.6-0.7-1.6-1.6v-9.1H80.1v9.1
				c0,0.9-0.7,1.6-1.6,1.6c-0.8,0-1.5-0.7-1.5-1.6V15.2c0-2.8,2.3-5.1,5.1-5.1h11.2V10z M80.1,20.2h15.3v-5.1c0-1.1-0.9-2-2-2H82.2
				c-1.1,0-2.1,0.9-2.1,2V20.2z"/>
			<path class="st4" d="M102.1,11.6c0-0.9,0.5-1.6,1.2-1.6s1.2,0.7,1.2,1.6v17.2c0,1.1,0.7,2.1,1.6,2.1h11.1c0.7,0,1.2,0.7,1.2,1.5
				c0,0.9-0.6,1.6-1.2,1.6h-11.1c-2.2,0-4.1-2.3-4.1-5.1V11.6H102.1z"/>
			<path class="st4" d="M136.4,15.4c2.2,0,4,1.8,4,4V30c0,2.2-1.8,4-4,4H126c-2.2,0-4-1.8-4-4V19.4c0-2.2,1.8-4,4-4H136.4z
				 M124.4,30c0,0.9,0.7,1.6,1.6,1.6h10.4c0.9,0,1.6-0.7,1.6-1.6V19.4c0-0.9-0.7-1.6-1.6-1.6H126c-0.9,0-1.6,0.7-1.6,1.6V30z"/>
			<path class="st4" d="M158,15.4c0.7,0,1.2,0.5,1.2,1.2c0,0.6-0.5,1.2-1.2,1.2h-6.4v14.9c0,0.7-0.5,1.2-1.2,1.2s-1.2-0.5-1.2-1.2
				V17.8h-6.4c-0.7,0-1.2-0.6-1.2-1.2c0-0.7,0.5-1.2,1.2-1.2C142.8,15.4,158,15.4,158,15.4z"/>
			<path class="st4" d="M176.3,15.4c0.7,0,1.2,0.5,1.2,1.2c0,0.6-0.5,1.2-1.2,1.2H170v14.9c0,0.7-0.5,1.2-1.2,1.2s-1.2-0.5-1.2-1.2
				V17.8h-6.4c-0.7,0-1.2-0.6-1.2-1.2c0-0.7,0.5-1.2,1.2-1.2C161.2,15.4,176.3,15.4,176.3,15.4z"/>
			<path class="st4" d="M193,15.4c2.2,0,4,1.8,4,4V30c0,2.2-1.8,4-4,4h-10.4c-2.2,0-4-1.8-4-4V19.4c0-2.2,1.8-4,4-4H193z M181,30
				c0,0.9,0.7,1.6,1.6,1.6H193c0.9,0,1.6-0.7,1.6-1.6V19.4c0-0.9-0.7-1.6-1.6-1.6h-10.4c-0.9,0-1.6,0.7-1.6,1.6V30z"/>
			<path class="st4" d="M198.6,32.4c0-0.5,0.4-1,1-1c0.5,0,1,0.4,1,1V33c0,0.5-0.5,1-1,1c-0.6,0-1-0.5-1-1V32.4z"/>
			<path class="st4" d="M210.4,24.7c0.3,0,0.6,0.3,0.6,0.6c0,0.3-0.3,0.6-0.6,0.6h-5.3c-0.4,0-0.8,0.4-0.8,0.8V32
				c0,0.4,0.4,0.8,0.8,0.8h5.3c0.3,0,0.6,0.3,0.6,0.6s-0.3,0.6-0.6,0.6h-5.3c-1.1,0-2-0.9-2-2v-5.3c0-1.1,0.9-2,2-2
				C205.1,24.7,210.4,24.7,210.4,24.7z"/>
			<path class="st4" d="M218.9,24.7c1.1,0,2,0.9,2,2V32c0,1.1-0.9,2-2,2h-5.2c-1.1,0-2-0.9-2-2v-5.3c0-1.1,0.9-2,2-2H218.9z
				 M212.9,32c0,0.4,0.4,0.8,0.8,0.8h5.2c0.4,0,0.8-0.4,0.8-0.8v-5.3c0-0.4-0.4-0.8-0.8-0.8h-5.2c-0.4,0-0.8,0.4-0.8,0.8V32z"/>
			<path class="st4" d="M232.9,34h-1.7v-5.5c0-0.6,0-1.3,0.1-2h-0.1c-0.1,0.6-0.2,1-0.3,1.2l-2.2,6.3H227l-2.2-6.2
				c-0.1-0.2-0.2-0.6-0.3-1.3h-0.1c0.1,0.9,0.1,1.7,0.1,2.4V34H223v-9.3h2.7l1.9,5.5c0.2,0.4,0.3,0.9,0.3,1.3l0,0
				c0.1-0.5,0.2-1,0.4-1.3l1.9-5.5h2.6V34H232.9z"/>
		</g>
		<g>
			<path class="st4" d="M33.9,11L33.9,11c-1,0.3-1.8,0.8-2.6,1.4c0.2,0,0.5,0,0.7,0c0.3,0,0.5,0.1,0.6,0.4c0.1,0.2,0.2,0.4,0.4,0.6
				c0.2,0.2,0.4,0.3,0.6,0.5c0.1,0,0.2,0.1,0.3,0.1c0,0,0.1,0.1,0.3,0.2l0,0c0,0,0,0,0.1,0l0.2,0.1c0.2-0.1,0.3,0,0.5,0.1
				c0.1,0,0.2,0.1,0.3,0.2c0.1,0.1,0.2,0.1,0.3,0.2c0.1,0.1,0.2,0.2,0.3,0.3c-0.1,0.2-0.2,0.3-0.3,0.5l-0.2,0.2l-0.1,0.1
				c0,0-0.1,0.1-0.2,0.1l0,0l0,0c0.1,0.1,0,0.2-0.1,0.2c-0.1,0.1-0.3,0.1-0.4,0.1h-0.2c0,0-0.1,0-0.2,0.1c0,0,0,0-0.1,0
				s-0.1,0.1-0.2,0.1c-0.1,0.1-0.2,0.3-0.2,0.5c0,0.1,0,0.1-0.1,0.2c0,0.4,0.1,0.8,0,1.1c0,0.3-0.1,0.5-0.3,0.5c-0.1,0-0.2,0-0.3,0
				s-0.2-0.1-0.4-0.2s-0.3-0.2-0.6-0.4c0,0.1,0,0.2,0.1,0.2c0.1,0,0.1,0.1,0.1,0.2s0.1,0.1,0.1,0.2h0.1h0.1c0.1,0,0.1,0,0.2,0.1
				c0,0.1,0,0.1,0,0.2l-0.1,0.1l0,0l0.1,0.1c0.1,0.1,0.2,0.1,0.2,0.2H33c0,0,0,0,0.1,0c0.2,0,0.4,0,0.6,0c0.2,0,0.5,0,0.7,0
				s0.5,0.1,0.7,0.2s0.5,0.3,0.7,0.5s0.5,0.4,0.7,0.6s0.5,0.3,0.6,0.4c0.2,0.1,0.3,0.2,0.5,0.4c0.1,0.1,0.2,0.3,0.2,0.4
				c0,0.3,0,0.6-0.1,0.9c0,0.3-0.1,0.5-0.1,0.7c0,0.1-0.2,0.3-0.4,0.6c-0.2,0.2-0.5,0.5-0.8,0.7c-0.1,0.1-0.2,0.2-0.3,0.3
				c-0.1,0.1-0.2,0.2-0.2,0.4c-0.1,0.2-0.1,0.4-0.1,0.6c-0.1,0.2-0.2,0.4-0.3,0.6s-0.2,0.3-0.2,0.5c0,0.1-0.1,0.2-0.1,0.3
				c0.5,0.1,1,0.1,1.6,0.1c4.7,0,8.5-3.8,8.6-8.5l-0.7,0.4c-0.1,0-0.2,0-0.3,0c-0.2,0-0.3,0.1-0.3,0.2l0.4,0.1
				c0.1,0,0.1,0.1,0.1,0.1c0,0.1,0,0.3-0.1,0.5L44.2,21c0,0.1-0.1,0.1-0.1,0.2l-0.2,0.2l-0.2,0.2c0,0,0,0.1,0,0.2s0,0.1,0,0.2
				s0,0.3-0.1,0.4c-0.1,0.2-0.1,0.3-0.2,0.5V23c0,0.1-0.1,0.2-0.1,0.3c0,0.1-0.1,0.2-0.1,0.3c0,0.1-0.1,0.2-0.1,0.2
				c0,0.1-0.1,0.2-0.1,0.3c0,0.4-0.2,0.8-0.5,1.1c-0.4,0.4-0.8,0.6-1.1,0.6c-0.1,0-0.2-0.1-0.3-0.3c-0.1-0.1-0.1-0.3-0.2-0.4
				c0,0,0,0,0-0.1l-0.1-0.2c0,0,0-0.1-0.1-0.2c-0.1-0.2-0.2-0.4-0.2-0.6c-0.1-0.2-0.1-0.4-0.1-0.6v-0.1v-0.1c0-0.2,0.1-0.3,0.1-0.5
				s0-0.3-0.1-0.5L40.3,22c-0.1-0.1-0.1-0.2-0.1-0.4c0-0.1,0-0.3,0.1-0.5c0,0-0.1,0-0.2-0.1c-0.1,0-0.4,0-0.7,0h-0.2h-0.1
				c-0.7,0-1.1-0.4-1.3-1.2c-0.1-0.5,0-1,0.3-1.5v-0.1c0-0.1,0-0.2,0-0.2c0.1,0,0.1,0,0.2-0.1l0.1-0.1l0.1-0.2c0.2,0,0.4,0,0.6-0.1
				c0.2,0,0.5-0.1,0.7-0.1c0.3,0,0.5,0,0.7,0s0.4,0,0.5,0.1s0.2,0.2,0.3,0.2c0.2,0.1,0.4,0.2,0.6,0.3l0.7-0.5
				c-0.1-0.3-0.3-0.4-0.4-0.6c-0.1-0.1-0.2-0.2-0.3-0.3c-0.1-0.1-0.2-0.1-0.3-0.1s-0.2,0-0.3,0.1c-0.2,0-0.3,0.2-0.5,0.3l-1.6-0.1
				c-0.1,0.1-0.2,0.1-0.3,0.2c-0.1,0-0.2,0-0.3,0.1c-0.1,0-0.2,0-0.3,0c0-0.2-0.1-0.3-0.1-0.4c-0.1-0.2-0.1-0.3-0.2-0.4
				c0-0.1,0-0.2,0.1-0.2c0-0.1,0.1-0.1,0.2-0.2c0.1,0,0.1-0.1,0.2-0.2c0-0.1,0.1-0.2,0.1-0.3s0-0.2,0-0.4c0-0.1,0.1-0.3,0.1-0.5
				s0.2-0.4,0.4-0.7c0.1-0.2,0.3-0.3,0.5-0.5c0.2-0.1,0.5-0.2,0.8-0.3s0.6-0.1,0.9-0.2c0.3,0,0.5-0.1,0.7-0.1
				c-0.6-0.5-1.2-0.9-1.9-1.2l0,0C37.2,9.9,34.7,10.8,33.9,11z"/>
			<path class="st4" d="M33.4,27.2c0-0.2,0-0.5,0.1-0.8c0-0.3,0.1-0.7,0.1-1s0.1-0.6,0.1-0.9s0-0.4,0.1-0.5c0-0.2-0.1-0.4-0.2-0.6
				l-0.1-0.2c-0.1-0.2-0.3-0.4-0.4-0.7c-0.1-0.3-0.2-0.6-0.2-0.9s0-0.5,0-0.7c0-0.1,0-0.3,0-0.3l-0.1-0.1h-0.1
				c-0.1-0.1-0.2-0.2-0.3-0.2c-0.1-0.1-0.2-0.2-0.3-0.2c-0.3-0.1-0.6-0.2-0.9-0.3c-0.3-0.1-0.6-0.2-0.9-0.3c-0.1,0-0.3-0.1-0.5-0.2
				s-0.4-0.2-0.6-0.4c-0.2-0.1-0.4-0.3-0.6-0.5s-0.3-0.4-0.5-0.6c-0.1,0.5-0.1,1-0.1,1.5C28,22.8,30.2,25.9,33.4,27.2z"/>
		</g>
		<circle class="st5" cx="22.3" cy="24.1" r="5.4"/>
		<circle class="st5" cx="31.8" cy="33.2" r="5"/>
		<circle class="st5" cx="43.3" cy="32.8" r="4.6"/>
		<circle class="st5" cx="49" cy="24.4" r="4"/>
		<circle class="st5" cx="49.2" cy="15.6" r="3.1"/>
		<circle class="st5" cx="45" cy="10.4" r="2.1"/>
		<circle class="st5" cx="40.3" cy="6.9" r="1.9"/>
		<circle class="st5" cx="34.8" cy="6.9" r="1.9"/>
		<circle class="st5" cx="29.4" cy="8.7" r="1.5"/>
		<circle class="st5" cx="25.7" cy="12" r="1.1"/>
		<circle class="st3" cx="24.9" cy="15.6" r="0.9"/>
	</g>
</g>
</svg>
