<?xml version="1.0" encoding="utf-8"?>
<!-- Generator: Adobe Illustrator 21.0.0, SVG Export Plug-In . SVG Version: 6.00 Build 0)  -->
<svg version="1.1" id="Слой_1" xmlns="http://www.w3.org/2000/svg" xmlns:xlink="http://www.w3.org/1999/xlink" x="0px" y="0px"
	 viewBox="0 0 20 20" style="enable-background:new 0 0 20 20;" xml:space="preserve">
<style type="text/css">
	.st0{fill:#EC556A;}
</style>
<path class="st0" d="M12.7,10.3c-0.2-0.2-0.2-0.4,0-0.6l6.5-6.5c0.2-0.2,0.3-0.4,0.3-0.6S19.4,2.1,19.2,2L18,0.8
	c-0.2-0.2-0.4-0.3-0.6-0.3c-0.3,0-0.4,0.1-0.6,0.3l-6.5,6.5c-0.2,0.2-0.4,0.2-0.6,0L3.2,0.8C3,0.6,2.8,0.5,2.6,0.5S2.1,0.6,2,0.8
	L0.8,2C0.6,2.1,0.5,2.4,0.5,2.6S0.6,3,0.8,3.2l6.5,6.5c0.2,0.2,0.2,0.4,0,0.6l-6.5,6.5c-0.2,0.2-0.3,0.4-0.3,0.6s0.1,0.4,0.3,0.6
	L2,19.2c0.2,0.2,0.4,0.3,0.6,0.3s0.4-0.1,0.6-0.3l6.5-6.5c0.2-0.2,0.4-0.2,0.6,0l6.5,6.5c0.2,0.2,0.4,0.3,0.6,0.3s0.4-0.1,0.6-0.3
	l1.2-1.2c0.2-0.2,0.3-0.4,0.3-0.6s-0.1-0.4-0.3-0.6L12.7,10.3z"/>
</svg>
