<?xml version="1.0" encoding="utf-8"?>
<!-- Generator: Adobe Illustrator 21.0.0, SVG Export Plug-In . SVG Version: 6.00 Build 0)  -->
<svg version="1.1" id="Слой_1" xmlns="http://www.w3.org/2000/svg" xmlns:xlink="http://www.w3.org/1999/xlink" x="0px" y="0px"
	 viewBox="0 0 20 20" style="enable-background:new 0 0 20 20;" xml:space="preserve">
<style type="text/css">
	.st0{fill:#fff;}
</style>
<g>
	<path class="st0" d="M9.4,7.2"/>
	<path class="st0" d="M3.5,12.3"/>
	<path class="st0" d="M-15.3,19.1C-15.3,19.1-15.3,19.1-15.3,19.1C-15.3,19.1-15.3,19.1-15.3,19.1z"/>
	<path class="st0" d="M-5.5,19.1C-5.5,19.1-5.5,19.1-5.5,19.1C-5.5,19.1-5.5,19.1-5.5,19.1z"/>
	<path class="st0" d="M19.3,7.6c0,0.2-0.1,0.2-0.2,0.2c-3.1,1.3-5.4,3.7-7.3,6.4c-1.1,1.6-2.1,3.3-2.9,5c-0.1,0.3-0.2,0.4-0.5,0.1
		c-2-2-4.1-4-6.1-6C2,13,1.8,12.7,1.4,12.5c-0.2-0.2-0.2-0.3,0.1-0.4c0.8-0.4,1.5-0.7,2.3-1.1c0.3-0.2,0.5-0.1,0.8,0.1
		c1.3,1.3,2.5,2.5,3.8,3.8c0.4,0.4,0.4,0.4,0.5-0.1c0.6-1.6,1.4-3.1,2.2-4.5c1.9-3.3,4.1-6.4,6.4-9.4c0.1-0.1,0.1-0.3,0.2-0.2
		c0.1,0,0.1,0.2,0.1,0.3C18.3,3,18.8,5.3,19.3,7.6C19.3,7.5,19.3,7.6,19.3,7.6z"/>
</g>
</svg>
