<?xml version="1.0" encoding="utf-8"?>
<!-- Generator: Adobe Illustrator 21.0.0, SVG Export Plug-In . SVG Version: 6.00 Build 0)  -->
<svg version="1.1" id="Layer_1" xmlns="http://www.w3.org/2000/svg" xmlns:xlink="http://www.w3.org/1999/xlink" x="0px" y="0px"
	 viewBox="0 0 20 20" style="enable-background:new 0 0 20 20;" xml:space="preserve">
<style type="text/css">
	.st0{fill:#FFFFFF;}
</style>
<path class="st0" d="M10,17.1c0-0.5-0.2-0.9-0.6-1.2c0.4-0.3,0.6-0.7,0.6-1.2c0-0.5-0.2-0.9-0.6-1.2c0.4-0.3,0.6-0.7,0.6-1.2
	c0-3.1-9.5-3.1-9.5,0c0,0.5,0.2,0.9,0.6,1.2c-0.4,0.3-0.6,0.7-0.6,1.2c0,0.5,0.2,0.9,0.6,1.2c-0.4,0.3-0.6,0.7-0.6,1.2
	c0,1.6,2.4,2.4,4.8,2.4S10,18.7,10,17.1z M5.3,18.3c-2.2,0-3.6-0.8-3.6-1.2c0-0.1,0.2-0.3,0.5-0.5c0.9,0.3,2,0.5,3.1,0.5
	s2.2-0.2,3.1-0.5c0.3,0.2,0.5,0.4,0.5,0.5C8.8,17.5,7.5,18.3,5.3,18.3z M5.3,15.9c-2.2,0-3.6-0.8-3.6-1.2c0-0.1,0.2-0.3,0.5-0.5
	c0.9,0.3,2,0.5,3.1,0.5s2.2-0.2,3.1-0.5c0.3,0.2,0.5,0.4,0.5,0.5C8.8,15.2,7.5,15.9,5.3,15.9z M5.3,13.6c-2.2,0-3.6-0.8-3.6-1.2
	c0-0.4,1.4-1.2,3.6-1.2s3.6,0.8,3.6,1.2C8.8,12.8,7.5,13.6,5.3,13.6z M14.2,5c0,0.2-0.1,0.3-0.3,0.3H8.5C8.4,5.2,8.2,5.1,8.2,5
	c0-0.2,0.1-0.3,0.3-0.3h5.3C14,4.7,14.2,4.8,14.2,5z M14.2,5.8c0,0.2-0.1,0.3-0.3,0.3H8.5C8.4,6.1,8.2,6,8.2,5.8s0.1-0.3,0.3-0.3
	h5.3C14,5.5,14.2,5.7,14.2,5.8z M8.1,2.3C7.8,1.7,7.9,1,8.5,0.7c0.6-0.3,1.3-0.1,1.6,0.4l0,0c0.2-0.4,0.6-0.6,1-0.6s0.8,0.3,1,0.6
	l0,0c0.3-0.6,1.1-0.8,1.6-0.4c0.6,0.3,0.8,1.1,0.4,1.6l-0.7,2.1H8.8L8.1,2.3z M18.4,17.3c0.3-0.9,0.7-3.4-1.2-6.1
	c-1.3-1.7-1.4-0.6-3.6-4.8H8.8c-1,1.9-1.6,2.7-2,3.1c2.1,0.3,3.8,1.2,3.8,2.8c0,0.4-0.1,0.8-0.4,1.2c0.3,0.4,0.4,0.8,0.4,1.2
	c0,0.4-0.1,0.8-0.4,1.2c0.3,0.4,0.4,0.8,0.4,1.2c0,1.1-0.8,1.9-2,2.4h10.8c0.1-0.2,0.1-0.4,0.1-0.6C19.5,18.2,19,17.5,18.4,17.3z
	 M17.3,16.9L17,18c0,0-0.1-3.2-2.1-5.5c-1.9-2.2-2-4.8-2-4.8c1.2,2.2,1.8,2.8,2.5,3.4c0.3,0.2,0.5,0.4,0.9,0.9
	C17.8,14.1,17.5,16.1,17.3,16.9z"/>
</svg>
