<?xml version="1.0" encoding="utf-8"?>
<!-- Generator: Adobe Illustrator 21.0.0, SVG Export Plug-In . SVG Version: 6.00 Build 0)  -->
<svg version="1.1" id="Слой_1" xmlns="http://www.w3.org/2000/svg" xmlns:xlink="http://www.w3.org/1999/xlink" x="0px" y="0px"
	 viewBox="0 0 20 20" style="enable-background:new 0 0 20 20;" xml:space="preserve">
<style type="text/css">
	.st0{display:none;}
	.st1{fill:#FFFFFF;}
	.st2{fill:none;}
	.st3{enable-background:new    ;}
</style>
<g id="Слой_1_1_" class="st0">
	
		<image style="display:inline;overflow:visible;enable-background:new    ;" width="219" height="132" xlink:href="C:\Users\design-2\Desktop\Слой 7.png"  transform="matrix(9.132420e-02 0 0 9.132420e-02 0 4)">
	</image>
</g>
<g id="Слой_2">
	<path class="st1" d="M6.5,4.6c-3,0-5.4,2.4-5.4,5.4s2.4,5.4,5.4,5.4s5.4-2.4,5.4-5.4S9.4,4.6,6.5,4.6z M5.3,12.8
		c-1.6,0-2.9-1.5-2.9-3.4S3.7,6,5.3,6s2.9,1.5,2.9,3.4C8.2,11.2,6.9,12.8,5.3,12.8z"/>
</g>
<g id="Слой_3">
	<path class="st1" d="M14.2,6c-2.6,0-4.7,2.1-4.7,4.7s2.1,4.7,4.7,4.7s4.7-2.1,4.7-4.7S16.8,6,14.2,6z M14.6,13.9c-1.7,0-3-1.3-3-3
		s1.3-3,3-3s3,1.3,3,3S16.3,13.9,14.6,13.9z"/>
</g>
<g id="Слой_4">
	<rect x="3.9" y="7.2" class="st2" width="7.8" height="6.2"/>
	<g class="st3">
		<path class="st1" d="M6.4,7.5v0.3L4.9,11H4.4l1.5-3.1v0H4.2V7.5H6.4z"/>
	</g>
	<rect x="12.3" y="9" class="st2" width="7.8" height="6.2"/>
	<g class="st3">
		<path class="st1" d="M13.5,9.7L13.5,9.7l-0.6,0.3l-0.1-0.4l0.8-0.4H14v3.5h-0.5V9.7z"/>
		<path class="st1" d="M15.7,9.7L15.7,9.7L15,10.1L15,9.7l0.8-0.4h0.4v3.5h-0.5V9.7z"/>
	</g>
</g>
</svg>
