<svg xmlns="http://www.w3.org/2000/svg" viewBox="0 0 19 21">
    <defs>
        <style>.cls-1{fill:none; stroke:#4b6ec1;stroke-miterlimit:10;}</style>
    </defs>
    <title>double-arrows</title>
    <g id="doubleArrows" data-name="doubleArrows">
        <g id="Objects">
            <path class="cls-1"
                  d="M17.92,8.94,10.17,1.09a2,2,0,0,0-2.81,0,2,2,0,0,0,0,2.84l6.49,6.57L7.36,17.07a2,2,0,0,0,0,2.84,2,2,0,0,0,2.81,0l7.75-7.85a2,2,0,0,0,.57-1.56A2,2,0,0,0,17.92,8.94Z"/>
            <path class="cls-1"
                  d="M9.23,10.5a2,2,0,0,0-.58-1.42L3.89,4.27a2,2,0,0,0-2.81,0,2,2,0,0,0,0,2.84L4.43,10.5,1.08,13.89a2,2,0,0,0,0,2.84,2,2,0,0,0,2.81,0l4.76-4.81A2,2,0,0,0,9.23,10.5Z"/>
        </g>
    </g>
</svg>