<?xml version="1.0" encoding="utf-8"?>
<!-- Generator: Adobe Illustrator 21.0.0, SVG Export Plug-In . SVG Version: 6.00 Build 0)  -->
<svg version="1.1" xmlns="http://www.w3.org/2000/svg" xmlns:xlink="http://www.w3.org/1999/xlink" x="0px" y="0px"
	 viewBox="0 0 20 20" style="enable-background:new 0 0 20 20;" xml:space="preserve">
<style type="text/css">
	.st0{fill:#FFFFFF;}
</style>
<g id="Слой_3">
	<g>
		<path class="st0" d="M7.6,13.9c-0.2,0.2-0.3,0.6,0,0.9c0.2,0.2,0.6,0.2,0.8,0l3.3-3.3c0.1-0.1,0.2-0.3,0.2-0.5c0,0,0-0.1,0-0.1
			V5.2c0-0.3-0.3-0.6-0.6-0.6c-0.3,0-0.6,0.3-0.6,0.6v5.7L7.6,13.9z M10.7,10.8"/>
	</g>
</g>
<g id="Слой_4">
	<path class="st0" d="M4.7,4c3.4-3.4,8.8-3.4,12.2,0c3.3,3.3,3.3,8.8,0,12.2c-3.4,3.4-8.8,3.3-12.2,0c-1.2-1.2-2-2.8-2.4-4.5l-1.9,0
		L2.6,8l2.1,3.6l-1.3,0c0.3,1.4,1,2.7,2,3.7c2.9,2.9,7.7,2.9,10.7,0c2.9-2.9,2.9-7.7,0-10.7s-7.7-2.9-10.7,0L4.7,4z"/>
</g>
<g id="Слой_5">
	<circle class="st0" cx="11.1" cy="16.4" r="0.5"/>
	<circle class="st0" cx="15.1" cy="14.5" r="0.5"/>
	<circle class="st0" cx="15.9" cy="5.8" r="0.5"/>
	<circle class="st0" cx="17.1" cy="10.4" r="0.5"/>
</g>
</svg>
